<?xml version="1.0" encoding="UTF-8" standalone="no"?>
<svg width="345px" height="180px" viewBox="0 0 345 180" version="1.1" xmlns="http://www.w3.org/2000/svg" xmlns:xlink="http://www.w3.org/1999/xlink" xmlns:sketch="http://www.bohemiancoding.com/sketch/ns">
    <!-- Generator: Sketch 3.2.2 (9983) - http://www.bohemiancoding.com/sketch -->
    <title>vnyl</title>
    <desc>Created with Sketch.</desc>
    <defs></defs>
    <g id="Page-1" stroke="none" stroke-width="1" fill="none" fill-rule="evenodd" sketch:type="MSPage">
        <g id="vnyl" sketch:type="MSLayerGroup" fill="#FF007B">
            <g id="Group" sketch:type="MSShapeGroup">
                <path d="M156.239,112.055 L156.239,126.348 L207.801,126.348 L207.801,112.055 L192.653,112.055 L192.653,67.121 C192.653,38.531 172.916,34.793 163.385,34.793 C150.961,34.793 138.365,39.723 132.751,53.002 L132.751,36.316 C132.751,36.316 118.428,36.984 113.649,37.076 C112.208,37.103 108.649,37.07 107.882,37.07 C97.27,37.07 65.434,37.174 65.434,37.174 L65.434,50.278 L79.562,50.278 L59.65,101.334 L41.103,50.277 L54.036,50.277 L54.036,37.174 L0.768,37.174 L0.768,50.278 L16.254,50.278 L40.761,108.813 C47.059,124.475 49.949,128.213 56.588,128.213 C63.735,128.213 66.967,124.133 73.943,106.606 L97.089,50.278 L110.193,50.278 L111.989,50.278 L111.989,112.055 L96.162,112.055 L96.162,126.348 L148.408,126.348 L148.408,112.055 L133.264,112.055 L133.264,81.756 C133.264,66.106 137.174,50.951 154.364,49.594 C162.194,48.91 171.383,54.018 171.383,68.996 L171.383,112.055 L156.239,112.055 L156.239,112.055 Z" id="Shape"></path>
                <path d="M303.116,37.174 L258.358,37.174 L258.358,50.278 L270.778,50.278 L253.423,104.731 L233.339,50.278 L246.277,50.278 L246.277,37.174 L193.009,37.174 L193.009,50.278 L208.494,50.278 L240.32,126.348 C236.063,145.75 227.789,168.151 215.503,168.1 C213.463,168.092 211.93,167.93 210.567,167.588 C212.95,165.205 215.198,161.424 215.161,155.846 C215.12,149.379 210.396,145.125 203.421,145.125 C195.253,145.125 189.634,151.418 189.634,158.4 C189.634,172.693 202.059,179.67 217.202,179.67 L218.227,179.67 C241.709,179.158 255.122,145.408 262.103,126.69 L290.013,50.278 L303.116,50.278 L303.116,37.174 L303.116,37.174 Z" id="Shape"></path>
                <path d="M328.57,112.055 L328.57,0.072 L290.452,0.072 L290.452,13.684 L307.299,13.684 L307.299,112.055 L290.11,112.055 L290.11,126.348 L344.91,126.348 L344.91,112.055 L328.57,112.055 Z" id="Shape"></path>
            </g>
        </g>
    </g>
</svg>